<svg width="15" height="16" viewBox="0 0 15 16" fill="none" xmlns="http://www.w3.org/2000/svg">
<path d="M9.16989 0C12.3899 0 15.0007 2.68051 15.0007 5.98643C15.0007 9.29235 12.3899 11.9729 9.16987 11.9729C7.93165 11.9729 6.78333 11.5764 5.83941 10.9009L5.83872 10.9002L1.51429 15.3401C1.43404 15.4225 1.30644 15.4246 1.22411 15.3401L0.0586157 14.1435C-0.0216322 14.0611 -0.0175152 13.9245 0.0593004 13.8456L4.38309 9.40645C3.72523 8.43664 3.33902 7.25766 3.33902 5.98643C3.33902 2.68051 5.94988 0 9.16989 0ZM9.16989 10.5643C11.6326 10.5643 13.6288 8.51482 13.6288 5.98643C13.6288 3.45804 11.6326 1.40858 9.16989 1.40858C6.70723 1.40858 4.711 3.45804 4.711 5.98643C4.711 8.51482 6.7072 10.5643 9.16989 10.5643Z" fill="white"/>
</svg>
